<?xml version="1.0" encoding="UTF-8"?>
<svg id="Layer_1" xmlns="http://www.w3.org/2000/svg" version="1.1" viewBox="0 0 2000 1400">
  <!-- Generator: Adobe Illustrator 30.1.0, SVG Export Plug-In . SVG Version: 2.1.1 Build 136)  -->
  <defs>
    <style>
      .st0 {
        fill: #afd8a6;
      }
    </style>
  </defs>
  <path class="st0" d="M234.69,681.81v-25h12.5v-37.5h12.5v-50h12.5v-37.5h-12.5v-12.5h50v12.5h-12.5v37.5h-12.5v37.5h75v-37.5h12.5v-37.5h-12.5v-12.5h50v12.5h-12.5v37.5h-12.5v50h-12.5v37.5h-12.5v25h12.5v12.5h-50v-12.5h12.5v-25h12.5v-37.5h-75v37.5h-12.5v25h12.5v12.5h-50v-12.5h12.5Z"/>
  <path class="st0" d="M427.18,656.81v-37.5h12.5v-37.5h-12.5v-12.5h37.5v62.5h-12.5v25h-12.5v25h12.5v12.5h-37.5v-37.5h12.5ZM427.18,581.81v12.5h-12.5v-12.5h12.5ZM477.18,519.31v25h-25v-25h25ZM464.68,669.31v12.5h-12.5v-12.5h12.5Z"/>
  <path class="st0" d="M494.68,706.81v12.5h-25v-12.5h25ZM482.18,694.31v-25h25v37.5h-12.5v-12.5h-12.5Z"/>
  <path class="st0" d="M617.18,681.81v-25h12.5v-50h12.5v-37.5h12.5v-37.5h-12.5v-12.5h50v12.5h-12.5v37.5h-12.5v37.5h-12.5v50h-12.5v25h12.5v12.5h-50v-12.5h12.5Z"/>
  <path class="st0" d="M747.18,556.81v12.5h-25v-12.5h25ZM734.68,544.31v-25h25v37.5h-12.5v-12.5h-12.5Z"/>
  <path class="st0" d="M764.68,656.81v-37.5h12.5v-37.5h-12.5v-12.5h37.5v37.5h12.5v12.5h-12.5v12.5h-12.5v25h-12.5v37.5h-25v-37.5h12.5ZM764.68,581.81v12.5h-12.5v-12.5h12.5ZM827.18,594.31v12.5h-12.5v-12.5h12.5ZM839.68,581.81v12.5h-12.5v-12.5h12.5ZM852.18,656.81v-37.5h12.5v-25h-12.5v-12.5h-12.5v-12.5h37.5v12.5h12.5v25h12.5v12.5h-25v37.5h-12.5v25h12.5v12.5h-37.5v-37.5h12.5ZM889.68,669.31v12.5h-12.5v-12.5h12.5ZM914.68,594.31v12.5h-12.5v-12.5h12.5ZM927.18,581.81v12.5h-12.5v-12.5h12.5ZM939.68,656.81v-37.5h12.5v-25h-12.5v-12.5h-12.5v-12.5h37.5v12.5h12.5v37.5h-12.5v37.5h-12.5v25h12.5v12.5h-37.5v-37.5h12.5ZM977.18,669.31v12.5h-12.5v-12.5h12.5Z"/>
  <path class="st0" d="M1062.18,681.81v-12.5h12.5v12.5h25v12.5h-62.5v-12.5h25ZM1087.18,644.31v25h-12.5v-25h12.5ZM1162.18,631.81v-37.5h-12.5v-50h-12.5v-25h25v25h12.5v50h12.5v50h12.5v37.5h25v12.5h-75v-12.5h25v-37.5h-87.5v-25h12.5v12.5h62.5ZM1112.18,594.31v25h-12.5v-25h12.5ZM1124.68,569.31v25h-12.5v-25h12.5ZM1137.18,544.31v25h-12.5v-25h12.5Z"/>
  <path class="st0" d="M1242.18,656.81v-37.5h12.5v-50h12.5v-37.5h-25v-12.5h50v50h-12.5v50h-12.5v37.5h-12.5v25h12.5v12.5h-37.5v-37.5h12.5ZM1279.68,669.31v12.5h-12.5v-12.5h12.5Z"/>
  <path class="st0" d="M1322.17,656.81v-37.5h12.5v-37.5h-12.5v-12.5h37.5v62.5h-12.5v25h-12.5v25h12.5v12.5h-37.5v-37.5h12.5ZM1322.17,581.81v12.5h-12.5v-12.5h12.5ZM1372.17,519.31v25h-25v-25h25ZM1359.67,669.31v12.5h-12.5v-12.5h12.5Z"/>
  <path class="st0" d="M1402.17,681.81v-12.5h12.5v-12.5h12.5v25h12.5v12.5h37.5v12.5h-50v-12.5h-50v-12.5h25ZM1414.67,594.31v25h-25v-37.5h12.5v12.5h12.5ZM1427.17,569.31v12.5h-25v-12.5h25ZM1514.67,569.31v12.5h-12.5v12.5h-12.5v12.5h-12.5v-12.5h-50v-12.5h62.5v-12.5h25ZM1439.67,644.31v12.5h-12.5v-12.5h12.5ZM1452.17,631.81v12.5h-12.5v-12.5h12.5ZM1464.67,619.31v12.5h-12.5v-12.5h12.5ZM1477.17,606.81v12.5h-12.5v-12.5h12.5ZM1502.17,644.31v37.5h-12.5v-12.5h-12.5v-25h25ZM1489.67,681.81v12.5h-12.5v-12.5h12.5Z"/>
  <path class="st0" d="M1519.67,681.81v-50h12.5v-25h12.5v-12.5h25v12.5h-12.5v25h-12.5v37.5h12.5v12.5h25v12.5h-50v-12.5h-12.5ZM1594.67,581.81v12.5h-25v-12.5h25ZM1594.67,669.31v12.5h-12.5v-12.5h12.5ZM1607.17,656.81v-12.5h12.5v-25h12.5v-37.5h-37.5v-12.5h62.5v50h-12.5v37.5h-12.5v25h12.5v12.5h-37.5v-25h-12.5v-12.5h12.5ZM1657.17,669.31v12.5h-12.5v-12.5h12.5Z"/>
  <path class="st0" d="M1699.67,669.31v25h-25v-25h25ZM1699.67,619.31v-50h12.5v-50h25v50h-12.5v50h-12.5v37.5h-25v-37.5h12.5Z"/>
</svg>